<?xml version="1.0" encoding="iso-8859-1"?>
<!-- Generator: Adobe Illustrator 19.0.0, SVG Export Plug-In . SVG Version: 6.00 Build 0)  -->
<svg version="1.1" id="Capa_1" xmlns="http://www.w3.org/2000/svg" xmlns:xlink="http://www.w3.org/1999/xlink" x="0px" y="0px"
	 viewBox="0 0 512 512" style="enable-background:new 0 0 512 512;" xml:space="preserve">
<linearGradient id="SVGID_1_" gradientUnits="userSpaceOnUse" x1="256" y1="514" x2="256" y2="2" gradientTransform="matrix(1 0 0 -1 0 514)">
	<stop  offset="0" style="stop-color:#2AF598"/>
	<stop  offset="1" style="stop-color:#009EFD"/>
</linearGradient>
<path style="fill:url(#SVGID_1_);" d="M363.272,512H148.728C66.719,512,0,445.281,0,363.272V148.728C0,66.719,66.719,0,148.728,0
	h214.545C445.281,0,512,66.719,512,148.728v214.545C512,445.281,445.281,512,363.272,512z M148.728,40
	C88.775,40,40,88.775,40,148.728v214.545C40,423.225,88.775,472,148.728,472h214.545C423.225,472,472,423.225,472,363.272V148.728
	C472,88.775,423.225,40,363.272,40H148.728z M256,394c-76.094,0-138-61.906-138-138s61.906-138,138-138s138,61.906,138,138
	S332.094,394,256,394z M256,158c-54.037,0-98,43.963-98,98s43.963,98,98,98s98-43.963,98-98S310.037,158,256,158z M376,116
	c0,11.046,8.954,20,20,20s20-8.954,20-20s-8.954-20-20-20S376,104.954,376,116z"/>
<g>
</g>
<g>
</g>
<g>
</g>
<g>
</g>
<g>
</g>
<g>
</g>
<g>
</g>
<g>
</g>
<g>
</g>
<g>
</g>
<g>
</g>
<g>
</g>
<g>
</g>
<g>
</g>
<g>
</g>
</svg>
